<svg xmlns="http://www.w3.org/2000/svg" viewBox="0 0 48 48"><path fill="#009fe3" d="M0 0h48v48H0z"/><path d="M40.4 39.44h.14v-2c0-.67.1-1.38.08-2.07a8.08 8.08 0 0 0 0-2l-6.31-.25c0-1.26.12-2.45.14-3.64V11.56a1.47 1.47 0 0 0-.24-.88l-4.15-6.33c-.16-.24-.34-.47-.55-.75l-.43.58-4.39 6.48a1.46 1.46 0 0 0-.23.88v14.62A7.9 7.9 0 0 0 20 24.58a8.29 8.29 0 0 0-4.53 1.53v-5.79c-.59-.13-8-.11-8.43 0-.12.56-.09 23 0 23.4h.53l15.16-.08c1 0 2-.07 3.06-.1l3.68-.11 2.95-.1c1.35 0 2.7-.07 4.05-.12l3.32-.11.25-.06c-.34-.05-.55-.11-.77-.12l-2.39-.11-5.59-.2-5.19-.13c-1.78-.05-3.56-.15-5.34-.18-1.17 0-2.35.06-3.52.07H8.8a3.35 3.35 0 0 1-.47-.06c-.13-.74-.09-20.37 0-20.72a41.26 41.26 0 0 1 5.72.07v6.05a7.42 7.42 0 0 0 .06 1.54c.2-.2.34-.35.49-.49.52-.48 1-1 1.56-1.44A6.32 6.32 0 0 1 19.61 26a5.52 5.52 0 0 1 3.79 1.17c.67.51 1.27 1.11 1.91 1.67l.4.35.11-.06V12.17a2.08 2.08 0 0 1 .39-1.25c1-1.44 2-2.91 3-4.37l.3-.44c.09.07.12.08.14.11 1 1.5 2 3 3.05 4.51a3.06 3.06 0 0 1 .53 1.83c0 6.88-.13 13.76.11 20.64 0 .32.07.63.11 1 2.28 0 4.48-.22 6.76-.2Z" fill="#fff"/></svg>