<svg width="110" height="53" viewBox="0 0 110 53" fill="none" xmlns="http://www.w3.org/2000/svg">
  <g clip-path="url(#a)" fill="#fff">
    <path
      d="M110 26.456v25.467c0 .99 0 1.004-1.016 1.004H58.238c-.116 0-.247-.014-.363 0-.494.044-.712-.174-.682-.684.014-.189 0-.393 0-.582V1.237C57.193-.146 57.076 0 58.456 0h50.31c1.278 0 1.22-.131 1.234 1.208v25.248Zm-10.047 21c0-.015-.015-.03-.015-.044-2.657-.117-5.314-.262-7.971-.364-4.704-.175-9.423-.35-14.142-.451-3.369-.073-6.723-.015-10.091-.015-1.38 0-1.322.088-1.322-1.295V24.695c.03-.64.087-.698.74-.698 1.496-.015 3.006 0 4.502 0 .944 0 .973.015.973.975v7.581c.305-.29.479-.45.639-.61.363-.364.682-.757 1.06-1.092 2.758-2.532 6.272-2.91 9.278-.233.508.452.987.932 1.495 1.383.13.116.29.204.552.393v-.99c0-5.937 0-11.89-.015-17.827 0-.567.13-1.033.45-1.484 1.031-1.499 2.033-3.012 3.05-4.511.116-.175.26-.306.45-.524.203.262.348.451.479.64.987 1.47 1.945 2.954 2.947 4.41.305.45.421.902.421 1.426-.014 5.05-.043 10.085 0 15.134.03 2.78.174 5.574.276 8.353.015.597.102.655.697.655.218 0 .436-.029.653-.029 1.83-.073 3.674-.145 5.503-.233.494-.029.697.146.712.655.014.946.072 1.892.13 2.838.015.16.044.335.059.495.174-1.325.261-2.62.304-3.93.015-.625-.043-.669-.726-.698l-4.79-.175c-.407-.014-.814-.072-1.308-.13 0-.35-.014-.626 0-.917.03-.772.102-1.543.102-2.329.014-6.767.043-13.534.029-20.3 0-.408-.145-.874-.363-1.208-1.568-2.387-3.165-4.759-4.748-7.131-.116-.175-.261-.32-.435-.538-.16.203-.29.349-.393.509-1.524 2.241-3.02 4.511-4.559 6.738-.464.67-.653 1.353-.638 2.154.028 4.7.014 9.415.014 14.115 0 .32-.058.64-.087 1.048-.305-.16-.508-.247-.682-.35-2.687-1.57-5.373-1.513-8.073-.043-.218.117-.45.219-.77.364-.014-.393-.044-.655-.044-.917v-4.438c0-.83-.043-.873-.856-.873H65.6c-.857 0-.886.029-.886.902v23.939c0 1.018.043 1.062 1.06 1.076 4.138.015 8.276.073 12.414.03 2.773-.015 5.56-.146 8.334-.248 4.486-.189 8.959-.393 13.43-.596ZM0 52.942V1.004C0 .83.015.67 0 .494c0-.29.145-.45.436-.45.217 0 .435-.015.653-.015h50.6c.146 0 .29.015.436 0 .45-.029.683.16.654.626-.015.218 0 .436 0 .655v50.424c0 1.208.232 1.28-1.264 1.28H1.205C.842 53 .465 52.957 0 52.943Zm37.257-22.425c.03-.335.058-.553.058-.757v-2.838c0-.786 0-.786-.726-1.033-1.858-.626-3.79-.728-5.735-.611-3.557.203-6.316 2.313-7.521 5.69-1.002 2.837-1.016 5.748-.828 8.687.087 1.456.349 2.882.872 4.264.755 2.009 1.989 3.566 4.123 4.162.857.233 1.757.35 2.643.379 2.628.087 5.198-.379 7.753-.932.45-.102.58-.334.58-.756-.014-3.9 0-7.815-.014-11.715 0-.655-.072-.728-.697-.742a487.34 487.34 0 0 0-6.534 0c-.595 0-.682.087-.667.684.029.873.101 1.746.16 2.604.072.917.087.946 1.03.975.494.015.697.19.697.699-.014 1.019 0 2.037 0 3.056 0 1.237 0 1.237-1.205 1.368-1.045.116-1.742-.233-2.149-1.208-.232-.553-.45-1.15-.465-1.746-.072-2.198-.116-4.41-.072-6.607.014-.786.29-1.572.552-2.328.45-1.31 1.452-2.023 2.817-1.98 1.32.044 2.642.248 3.949.393.435.059.842.175 1.38.291Zm10.817 9.153v-7.844c0-.698-.043-.756-.74-.756a237.28 237.28 0 0 0-4.56 0c-.653 0-.71.058-.725.698v15.688c0 .654.058.713.697.713 1.48.014 2.947 0 4.428 0 .9 0 .9 0 .9-.874V39.67ZM31.93 6.942c.014-.393.014-.699.058-1.005.058-.538-.19-.83-.697-.916-.668-.117-1.336-.248-2.004-.262-2.004-.044-3.485.873-4.182 2.75-1.002 2.707-.958 5.472-.043 8.193.464 1.383 1.495 2.14 2.976 2.3 1.307.13 2.541-.132 3.79-.452.464-.116.624-.378.624-.83-.014-.872 0-1.745 0-2.619v-3.274c0-.364-.058-.684-.537-.684-.973 0-1.931-.014-2.904.015-.13 0-.392.145-.392.218 0 .407 0 .844.145 1.208.058.16.494.218.755.218.45 0 .683.16.683.626-.015 1.048.014 2.08-.015 3.129 0 .189-.13.436-.276.524-.929.538-2.265.087-2.715-.903a3.54 3.54 0 0 1-.247-.757c-.348-1.527-.334-3.085-.16-4.627a7.949 7.949 0 0 1 .581-2.081c.334-.771.988-1.194 1.844-1.164.625.029 1.249.13 1.859.218.276.029.523.102.857.175Zm2.57 4.453v5.675c0 .728.057.8.783.8 1.35.015 2.716 0 4.066 0 1.22 0 1.22 0 1.176-1.207-.029-.612-.087-.684-.74-.699a62.038 62.038 0 0 0-2.324 0c-.493.015-.711-.175-.697-.67.015-.916-.014-1.848 0-2.764.015-.64.088-.713.712-.728a44.17 44.17 0 0 1 1.96 0c.421.015.653-.146.624-.597v-.29c0-.757-.043-.786-.77-.801a40.68 40.68 0 0 0-1.887 0c-.479.014-.653-.204-.639-.655.015-.626-.014-1.266 0-1.892.015-.742.059-.8.785-.815.77-.014 1.553-.014 2.323-.014.42 0 .624-.19.639-.611 0-.175.014-.335.029-.51.014-.698-.03-.756-.726-.756-1.525-.015-3.05-.015-4.574 0-.682 0-.726.058-.74.756v5.778ZM10.337 6.81c0-.437-.015-.786 0-1.136.029-.48-.189-.756-.653-.785-.799-.044-1.598-.16-2.382-.059-1.147.146-2.047.786-2.439 1.921-.566 1.645-.276 3.158.944 4.439.45.48.958.887 1.423 1.339.276.262.58.538.784.858.42.655.464 1.397.087 2.081-.363.655-1.031.757-1.713.713-.378-.029-.755-.13-1.147-.189-.204-.029-.407-.043-.683-.073 0 .466.015.844 0 1.237-.029.422.174.611.566.684 1.075.204 2.164.277 3.238 0 1.046-.262 1.772-.902 2.033-1.964.48-1.863.145-3.507-1.336-4.832-.392-.349-.813-.684-1.205-1.062-.261-.247-.537-.51-.726-.8-.406-.64-.45-1.34-.087-2.009.334-.61.944-.713 1.568-.655.305.03.624.088.93.131.26.059.464.102.798.16Zm31.725 9.11c0 .494.015.873 0 1.25-.014.423.189.612.58.685 1.075.204 2.164.276 3.239 0 1.016-.262 1.742-.859 2.018-1.892.508-1.877.203-3.55-1.292-4.904-.392-.364-.813-.684-1.205-1.048-.262-.247-.538-.51-.726-.8-.407-.64-.465-1.325-.102-1.994.334-.611.93-.728 1.568-.67.305.03.624.088.93.132.203.029.406.072.696.13.03-.392.03-.727.058-1.047.044-.539-.203-.844-.726-.873-.74-.044-1.51-.146-2.236-.059-1.582.219-2.555 1.34-2.715 2.94-.145 1.455.29 2.663 1.365 3.667.624.582 1.249 1.135 1.83 1.761.595.655.653 1.47.29 2.241-.363.771-1.133.83-1.888.757-.334-.03-.667-.116-1.002-.175-.174-.058-.362-.072-.682-.102ZM21.62 6.84h1.103c1.19-.03 1.234.262 1.423-1.208.087-.713.102-.742-.624-.742h-5.663c-1.307 0-1.437.16-1.263 1.47.043.32.174.48.508.48h1.307c.827.014.842.014.842.873v8.862c0 1.252-.232 1.31 1.292 1.295.987-.014 1.016-.029 1.016-1.033v-8.79c0-.349.044-.713.059-1.207Zm-6.68 4.555V5.734c0-.8-.043-.83-.813-.844-.26 0-.537.014-.798 0-.508-.044-.697.218-.683.698.015.218 0 .437 0 .655v10.245c0 1.44-.145 1.412 1.438 1.397.799 0 .842-.058.842-.888.015-1.877.015-3.74.015-5.602Zm30.1 11.38c-1.656 0-2.991 1.382-2.962 3.027.029 1.615 1.364 2.983 2.962 2.997 1.597.015 3.005-1.397 3.005-3.027a3.012 3.012 0 0 0-3.005-2.997Z" />
  </g>
</svg>