<svg width="110" height="53" viewBox="0 0 110 53" fill="none" xmlns="http://www.w3.org/2000/svg">
<g clip-path="url(#clip0_8_3)">
<path d="M110 26.4563C110 34.824 110 43.1917 110 51.5593C110 51.6757 110 51.8067 110 51.9231C110 52.9127 110 52.9272 108.984 52.9272C92.0684 52.9272 75.1532 52.9272 58.2379 52.9272C58.1217 52.9272 57.9911 52.9127 57.8749 52.9272C57.3813 52.9709 57.1635 52.7526 57.1925 52.2433C57.207 52.0541 57.1925 51.8504 57.1925 51.6612C57.1925 34.8531 57.1925 18.045 57.1925 1.23696C57.1925 -0.145517 57.0763 6.96382e-06 58.4557 6.96382e-06C75.2258 6.96382e-06 91.9958 6.96382e-06 108.766 6.96382e-06C110.044 6.96382e-06 109.986 -0.130965 110 1.20786C110 9.63372 110 18.045 110 26.4563ZM99.9525 47.4555C99.9525 47.441 99.938 47.4264 99.938 47.4119C97.2809 47.2954 94.6239 47.1499 91.9668 47.0481C87.2625 46.8734 82.5436 46.6988 77.8248 46.5969C74.4562 46.5242 71.1022 46.5824 67.7337 46.5824C66.3543 46.5824 66.4124 46.6697 66.4124 45.2872C66.4124 38.6222 66.4124 31.9572 66.4124 25.2776C66.4124 25.0884 66.4124 24.8847 66.4124 24.6955C66.4414 24.0552 66.4995 23.997 67.1529 23.997C68.6484 23.9824 70.1584 23.997 71.654 23.997C72.5977 23.997 72.6268 24.0115 72.6268 24.972C72.6268 27.184 72.6268 29.3814 72.6268 31.5934C72.6268 31.8553 72.6268 32.1027 72.6268 32.5538C72.9317 32.2628 73.1059 32.1027 73.2656 31.9426C73.6286 31.5788 73.948 31.1859 74.3255 30.8512C77.0843 28.3191 80.598 27.9407 83.6035 30.6183C84.1117 31.0695 84.5909 31.5497 85.099 32.0008C85.2297 32.1172 85.3894 32.2046 85.6508 32.3937C85.6508 31.9717 85.6508 31.6952 85.6508 31.4042C85.6508 25.4668 85.6508 19.5148 85.6363 13.5774C85.6363 13.0099 85.7669 12.5442 86.0864 12.0931C87.1173 10.5942 88.1191 9.08073 89.1355 7.58183C89.2516 7.4072 89.3968 7.27623 89.5856 7.05794C89.7889 7.31989 89.934 7.50907 90.0647 7.69825C91.0521 9.16805 92.0103 10.6524 93.0122 12.1076C93.3171 12.5588 93.4333 13.0099 93.4333 13.5338C93.4187 18.5835 93.3897 23.6186 93.4333 28.6683C93.4623 31.4478 93.6075 34.2419 93.7091 37.0214C93.7237 37.6181 93.8108 37.6763 94.4061 37.6763C94.6239 37.6763 94.8417 37.6472 95.0594 37.6472C96.8889 37.5744 98.7329 37.5017 100.562 37.4143C101.056 37.3852 101.259 37.5599 101.274 38.0692C101.288 39.0151 101.346 39.961 101.404 40.9069C101.419 41.067 101.448 41.2416 101.463 41.4017C101.637 40.0774 101.724 38.7823 101.767 37.4725C101.782 36.8468 101.724 36.8031 101.041 36.774C99.4443 36.7158 97.8472 36.6576 96.2501 36.5994C95.8435 36.5848 95.437 36.5266 94.9433 36.4684C94.9433 36.1192 94.9288 35.8427 94.9433 35.5516C94.9723 34.7803 95.0449 34.0091 95.0449 33.2232C95.0594 26.4563 95.0885 19.6895 95.074 12.9226C95.074 12.5151 94.9288 12.0494 94.711 11.7147C93.1429 9.32812 91.5457 6.95607 89.9631 4.58403C89.8469 4.4094 89.7017 4.26387 89.5275 4.04559C89.3678 4.24932 89.2371 4.39484 89.1355 4.55492C87.6109 6.796 86.1154 9.06618 84.5763 11.2927C84.1117 11.9621 83.923 12.6461 83.9375 13.4465C83.9665 18.1469 83.952 22.8619 83.952 27.5623C83.952 27.8825 83.8939 28.2026 83.8649 28.6101C83.56 28.45 83.3567 28.3627 83.1825 28.2608C80.4964 26.6892 77.8102 26.7474 75.1096 28.2172C74.8918 28.3336 74.6595 28.4355 74.3401 28.581C74.3256 28.1881 74.2965 27.9261 74.2965 27.6642C74.2965 26.1799 74.2965 24.7101 74.2965 23.2257C74.2965 22.3962 74.253 22.3526 73.4399 22.3526C70.8263 22.3526 68.2128 22.3526 65.5993 22.3526C64.7427 22.3526 64.7136 22.3817 64.7136 23.2548C64.7136 31.2295 64.7136 39.2043 64.7136 47.1936C64.7136 48.2122 64.7572 48.2559 65.7735 48.2705C69.9116 48.285 74.0497 48.3432 78.1877 48.2996C80.961 48.285 83.7487 48.154 86.522 48.0522C91.0085 47.863 95.4805 47.6593 99.9525 47.4555Z" fill="#0192FD"/>
<path d="M0 52.9418C0 52.578 0 52.2869 0 52.0104C0 34.9986 0 18.0014 0 1.00412C0 0.829492 0.0145195 0.669416 0 0.494786C0 0.203737 0.145195 0.0436605 0.435586 0.0436605C0.653379 0.0436605 0.871172 0.0291081 1.08897 0.0291081C17.9607 0.0291081 34.8178 0.0291081 51.6895 0.0291081C51.8347 0.0291081 51.9799 0.0436605 52.1251 0.0291081C52.5752 3.18096e-06 52.8076 0.189185 52.7785 0.654863C52.764 0.87315 52.7785 1.09144 52.7785 1.30972C52.7785 18.1178 52.7785 34.9259 52.7785 51.7339C52.7785 52.9418 53.0108 53.0146 51.5153 53.0146C34.7452 53.0146 17.9752 53.0146 1.20512 53.0146C0.842133 53 0.464625 52.9563 0 52.9418ZM37.2571 30.5165C37.2862 30.1818 37.3152 29.9635 37.3152 29.7597C37.3152 28.8138 37.3152 27.8679 37.3152 26.922C37.3152 26.1362 37.3152 26.1362 36.5892 25.8888C34.7307 25.263 32.7996 25.1612 30.854 25.2776C27.2967 25.4813 24.538 27.5914 23.3329 30.9676C22.331 33.8053 22.3165 36.7158 22.5053 39.6554C22.5924 41.1107 22.8538 42.5368 23.3765 43.9193C24.1315 45.9275 25.3656 47.4846 27.5 48.0813C28.3567 48.3141 29.2569 48.4305 30.1426 48.4596C32.7706 48.547 35.3406 48.0813 37.896 47.5283C38.3461 47.4264 38.4768 47.1936 38.4768 46.7716C38.4623 42.8715 38.4768 38.9569 38.4623 35.0568C38.4623 34.402 38.3897 34.3292 37.7653 34.3147C35.5874 34.3001 33.4095 34.3001 31.2315 34.3147C30.6362 34.3147 30.5491 34.402 30.5636 34.9986C30.5927 35.8718 30.6653 36.7449 30.7233 37.6035C30.7959 38.5203 30.8105 38.5494 31.7542 38.5785C32.2479 38.5931 32.4512 38.7677 32.4512 39.277C32.4366 40.2957 32.4512 41.3144 32.4512 42.3331C32.4512 43.57 32.4512 43.57 31.246 43.701C30.2006 43.8174 29.5037 43.4681 29.0972 42.4931C28.8648 41.9401 28.647 41.3435 28.6325 40.7468C28.5599 38.5494 28.5164 36.3375 28.5599 34.14C28.5744 33.3542 28.8503 32.5684 29.1117 31.8116C29.5618 30.5019 30.5636 29.7889 31.9285 29.8325C33.2497 29.8762 34.571 30.0799 35.8778 30.2254C36.3134 30.2836 36.7199 30.4001 37.2571 30.5165ZM48.0742 39.67C48.0742 37.0505 48.0742 34.4456 48.0742 31.8262C48.0742 31.1277 48.0306 31.0695 47.3337 31.0695C45.8091 31.0549 44.2846 31.0549 42.7746 31.0695C42.1212 31.0695 42.0631 31.1277 42.0486 31.768C42.0486 36.9923 42.0486 42.2312 42.0486 47.4555C42.0486 48.1104 42.1067 48.1686 42.7455 48.1686C44.2265 48.1831 45.693 48.1686 47.174 48.1686C48.0742 48.1686 48.0742 48.1686 48.0742 47.2954C48.0742 44.7488 48.0742 42.2021 48.0742 39.67ZM31.9285 6.94152C31.943 6.5486 31.943 6.243 31.9865 5.9374C32.0446 5.39896 31.7978 5.10791 31.2896 5.0206C30.6217 4.90418 29.9538 4.7732 29.2859 4.75865C27.2822 4.71499 25.8012 5.6318 25.1043 7.50906C24.1024 10.2158 24.146 12.9808 25.0607 15.7021C25.5253 17.0846 26.5562 17.8413 28.0372 18.0014C29.344 18.1323 30.5781 17.8704 31.8268 17.5502C32.2914 17.4338 32.4512 17.1719 32.4512 16.7208C32.4366 15.8476 32.4512 14.9745 32.4512 14.1013C32.4512 13.0099 32.4512 11.9185 32.4512 10.827C32.4512 10.4632 32.3931 10.1431 31.9139 10.1431C30.9411 10.1431 29.9828 10.1285 29.01 10.1576C28.8794 10.1576 28.618 10.3031 28.618 10.3759C28.618 10.7834 28.618 11.2199 28.7632 11.5837C28.8213 11.7438 29.2569 11.802 29.5182 11.802C29.9683 11.802 30.2006 11.9621 30.2006 12.4278C30.1861 13.4756 30.2152 14.5088 30.1861 15.5566C30.1861 15.7457 30.0554 15.9931 29.9102 16.0805C28.981 16.6189 27.6452 16.1678 27.1951 15.1782C27.0789 14.9308 27.0063 14.6834 26.9483 14.4215C26.5998 12.8935 26.6143 11.3364 26.7885 9.7938C26.8757 9.08073 27.0935 8.36766 27.3693 7.7128C27.7033 6.94152 28.3567 6.5195 29.2133 6.5486C29.8376 6.57771 30.462 6.67957 31.0718 6.76689C31.3477 6.79599 31.5945 6.86876 31.9285 6.94152ZM34.4984 11.3946C34.4984 13.2864 34.4984 15.1782 34.4984 17.07C34.4984 17.7976 34.5565 17.8704 35.2825 17.8704C36.6328 17.885 37.9976 17.8704 39.3479 17.8704C40.5676 17.8704 40.5676 17.8704 40.524 16.6626C40.495 16.0513 40.4369 15.9786 39.7835 15.964C39.014 15.9495 38.2299 15.9495 37.4604 15.964C36.9667 15.9786 36.7489 15.7894 36.7635 15.2946C36.778 14.3778 36.7489 13.4465 36.7635 12.5297C36.778 11.8893 36.8506 11.8166 37.4749 11.802C38.1283 11.7875 38.7817 11.7875 39.4351 11.802C39.8561 11.8166 40.0884 11.6565 40.0594 11.2054C40.0594 11.1035 40.0594 11.0162 40.0594 10.9143C40.0594 10.1576 40.0158 10.1285 39.2899 10.114C38.6655 10.0994 38.0267 10.0994 37.4023 10.114C36.9232 10.1285 36.7489 9.91022 36.7635 9.45909C36.778 8.83334 36.7489 8.19303 36.7635 7.56727C36.778 6.8251 36.8215 6.76689 37.5475 6.75234C38.3171 6.73778 39.1011 6.73778 39.8706 6.73778C40.2917 6.73778 40.495 6.5486 40.5095 6.12658C40.5095 5.95195 40.524 5.79187 40.5385 5.61725C40.5531 4.91873 40.5095 4.86052 39.8126 4.86052C38.288 4.84597 36.7635 4.84597 35.2389 4.86052C34.5565 4.86052 34.5129 4.91873 34.4984 5.61725C34.4984 7.56727 34.4984 9.4882 34.4984 11.3946ZM10.3379 6.81055C10.3379 6.37397 10.3234 6.02471 10.3379 5.67546C10.3669 5.19523 10.1492 4.91873 9.68453 4.88962C8.88596 4.84597 8.08738 4.72955 7.30333 4.83141C6.15628 4.97694 5.25607 5.61725 4.86404 6.75234C4.29778 8.39676 4.58817 9.91022 5.80781 11.1908C6.25792 11.6711 6.7661 12.0785 7.23073 12.5297C7.5066 12.7916 7.81151 13.0681 8.01478 13.3883C8.43585 14.0431 8.47941 14.7853 8.1019 15.4693C7.73891 16.1241 7.07101 16.226 6.3886 16.1823C6.01109 16.1532 5.63358 16.0513 5.24155 15.9931C5.03828 15.964 4.83501 15.9495 4.55913 15.9204C4.55913 16.3861 4.57365 16.7644 4.55913 17.1573C4.5301 17.5794 4.73337 17.7685 5.1254 17.8413C6.19984 18.045 7.28881 18.1178 8.36325 17.8413C9.40866 17.5794 10.1346 16.939 10.396 15.8767C10.8751 14.014 10.5412 12.3696 9.06019 11.0453C8.66816 10.696 8.2471 10.3613 7.85507 9.98298C7.59372 9.73559 7.31785 9.47364 7.12909 9.18259C6.72255 8.54229 6.67899 7.84377 7.04198 7.17436C7.37592 6.56315 7.98574 6.46129 8.61009 6.5195C8.915 6.5486 9.23442 6.60681 9.53934 6.65047C9.80069 6.70868 10.004 6.75234 10.3379 6.81055ZM42.0631 15.9204C42.0631 16.4152 42.0776 16.7935 42.0631 17.1719C42.0486 17.5939 42.2519 17.7831 42.6439 17.8559C43.7183 18.0596 44.8073 18.1323 45.8817 17.8559C46.8981 17.5939 47.6241 16.9973 47.9 15.964C48.4081 14.0868 48.1032 12.4132 46.6077 11.0599C46.2157 10.696 45.7946 10.3759 45.4026 10.0121C45.1412 9.76469 44.8654 9.50275 44.6766 9.2117C44.2701 8.57139 44.212 7.88743 44.575 7.21801C44.9089 6.60681 45.5042 6.49039 46.1431 6.5486C46.448 6.57771 46.7674 6.63592 47.0723 6.67957C47.2756 6.70868 47.4789 6.75234 47.7693 6.81055C47.7983 6.41763 47.7983 6.08292 47.8274 5.76277C47.8709 5.22433 47.6241 4.91873 47.1014 4.88962C46.3609 4.84597 45.5913 4.7441 44.8654 4.83141C43.2827 5.0497 42.3099 6.17024 42.1502 7.77101C42.005 9.22625 42.4406 10.4341 43.5151 11.4382C44.1394 12.0203 44.7637 12.5733 45.3445 13.1991C45.9398 13.8539 45.9979 14.6689 45.6349 15.4401C45.2719 16.2114 44.5024 16.2696 43.7474 16.1969C43.4134 16.1678 43.0795 16.0805 42.7455 16.0222C42.5713 15.964 42.3825 15.9495 42.0631 15.9204ZM21.6196 6.83965C22.0552 6.83965 22.3891 6.83965 22.7231 6.83965C23.9137 6.81055 23.9572 7.1016 24.146 5.6318C24.2331 4.91873 24.2476 4.88962 23.5216 4.88962C21.6341 4.88962 19.7466 4.88962 17.859 4.88962C16.5523 4.88962 16.4216 5.0497 16.5958 6.35942C16.6394 6.67957 16.7701 6.83965 17.104 6.83965C17.5396 6.83965 17.9752 6.83965 18.4108 6.83965C19.2384 6.8542 19.2529 6.8542 19.2529 7.7128C19.2529 10.6669 19.2529 13.6211 19.2529 16.5752C19.2529 17.8267 19.0206 17.885 20.5451 17.8704C21.5325 17.8559 21.5615 17.8413 21.5615 16.8372C21.5615 13.9121 21.5615 10.9725 21.5615 8.0475C21.5615 7.69825 21.6051 7.33443 21.6196 6.83965ZM14.9406 11.3946C14.9406 11.2199 14.9406 11.0599 14.9406 10.8852C14.9406 9.16804 14.9406 7.45085 14.9406 5.73367C14.9406 4.93328 14.897 4.90418 14.1275 4.88962C13.8662 4.88962 13.5903 4.90418 13.3289 4.88962C12.8208 4.84597 12.632 5.10791 12.6465 5.58814C12.661 5.80643 12.6465 6.02471 12.6465 6.243C12.6465 9.66283 12.6465 13.0681 12.6465 16.4879C12.6465 17.9286 12.5013 17.8995 14.084 17.885C14.8825 17.885 14.9261 17.8267 14.9261 16.9973C14.9406 15.12 14.9406 13.2573 14.9406 11.3946ZM45.0396 22.7746C43.3844 22.7746 42.0486 24.1571 42.0776 25.8015C42.1067 27.4168 43.4425 28.7847 45.0396 28.7993C46.6368 28.8138 48.0451 27.4023 48.0451 25.7724C48.0451 24.128 46.6948 22.7746 45.0396 22.7746Z" fill="#0192FD"/>
</g>
<defs>
<clipPath id="clip0_8_3">
<rect width="110" height="53" fill="white"/>
</clipPath>
</defs>
</svg>
